<?xml version="1.0" encoding="UTF-8" standalone="no"?>
<!DOCTYPE svg PUBLIC "-//W3C//DTD SVG 1.1//EN" "http://www.w3.org/Graphics/SVG/1.1/DTD/svg11.dtd">
<svg width="100%" height="100%" viewBox="0 0 1000 1000" version="1.1" xmlns="http://www.w3.org/2000/svg" xmlns:xlink="http://www.w3.org/1999/xlink" xml:space="preserve" xmlns:serif="http://www.serif.com/" style="fill-rule:evenodd;clip-rule:evenodd;stroke-linejoin:round;stroke-miterlimit:2;">
    <g id="LOGO-ICON" serif:id="LOGO ICON" transform="matrix(7.278992,0,0,7.278992,-54.475155,201.578154)">
        <g transform="matrix(0.753067,0,0,0.753138,3.367015,-147.281064)">
            <g transform="matrix(1.095329,0,0,1.095329,24.943878,173.267051)">
                <g>
                    <g>
                        <g>
                            <clipPath id="_clip1">
                                <path d="M0.426,9.828L0.426,81.43L61.199,90.766L61.199,0.492L0.426,9.828Z"/>
                            </clipPath>
                            <g clip-path="url(#_clip1)">
                                <g>
                                    <g>
                                        <g>
                                            <g>
                                                <clipPath id="_clip2">
                                                    <path d="M0.426,9.828L0.426,81.43L61.199,90.766L61.199,0.492L0.426,9.828Z"/>
                                                </clipPath>
                                                <g clip-path="url(#_clip2)">
                                                    <rect x="0.426" y="0.492" width="60.773" height="90.211" style="fill:rgb(245,233,0);fill-rule:nonzero;"/>
                                                </g>
                                            </g>
                                        </g>
                                    </g>
                                </g>
                            </g>
                        </g>
                    </g>
                    <g>
                        <g>
                            <clipPath id="_clip3">
                                <path d="M14.102,128.141L59.773,140.988L59.773,115.297L14.102,128.141Z"/>
                            </clipPath>
                            <g clip-path="url(#_clip3)">
                                <g transform="matrix(1,0,0,1,14,115)">
                                    <g>
                                        <g>
                                            <g>
                                                <clipPath id="_clip4">
                                                    <path d="M0.102,13.141L45.773,25.988L45.773,0.297L0.102,13.141Z"/>
                                                </clipPath>
                                                <g clip-path="url(#_clip4)">
                                                    <rect x="0.109" y="0.297" width="45.664" height="25.691" style="fill:rgb(245,233,0);fill-rule:nonzero;"/>
                                                </g>
                                            </g>
                                        </g>
                                    </g>
                                </g>
                            </g>
                        </g>
                    </g>
                    <g>
                        <g>
                            <clipPath id="_clip5">
                                <path d="M61.203,121.246L61.203,109.332L0.43,100.508L0.43,130.07L61.203,121.246Z"/>
                            </clipPath>
                            <g clip-path="url(#_clip5)">
                                <g transform="matrix(1,0,0,1,0,100)">
                                    <g>
                                        <g>
                                            <g>
                                                <clipPath id="_clip6">
                                                    <path d="M61.203,21.246L61.203,9.332L0.43,0.508L0.43,30.07L61.203,21.246Z"/>
                                                </clipPath>
                                                <g clip-path="url(#_clip6)">
                                                    <rect x="0.43" y="0.508" width="60.738" height="29.562" style="fill:rgb(245,233,0);fill-rule:nonzero;"/>
                                                </g>
                                            </g>
                                        </g>
                                    </g>
                                </g>
                            </g>
                        </g>
                    </g>
                    <g>
                        <g>
                            <clipPath id="_clip7">
                                <path d="M41.711,97.945L104.211,97.945L105.699,89.535L40.223,89.535L41.711,97.945Z"/>
                            </clipPath>
                            <g clip-path="url(#_clip7)">
                                <g transform="matrix(1,0,0,1,40,89)">
                                    <g>
                                        <g>
                                            <g>
                                                <clipPath id="_clip8">
                                                    <path d="M1.711,8.945L64.211,8.945L65.699,0.535L0.223,0.535L1.711,8.945Z"/>
                                                </clipPath>
                                                <g clip-path="url(#_clip8)">
                                                    <rect x="0.223" y="0.535" width="65.484" height="8.41" style="fill:rgb(245,233,0);fill-rule:nonzero;"/>
                                                </g>
                                            </g>
                                        </g>
                                    </g>
                                </g>
                            </g>
                        </g>
                    </g>
                </g>
                <g transform="matrix(0.381129,0,0,0.381129,-35.780236,-120.509838)">
                    <g>
                        <g transform="matrix(1,0,0,1.196959,-0,-105.730639)">
                            <path d="M248.263,359.525L248.263,536.815C199.354,534.193 150.445,531.571 101.536,528.949L101.536,388.698C150.445,378.974 199.354,369.249 248.263,359.525Z" style="fill:rgb(245,233,0);"/>
                        </g>
                        <g>
                            <g id="BOX--VECTOR-" serif:id="BOX (VECTOR)" transform="matrix(1.118246,0,0,1.118246,-17.782015,77.143799)">
                                <g transform="matrix(2.513511,0,0,2.513511,-68.525866,298.740343)">
                                    <path d="M78.697,34.963L78.697,31.617C79.788,31.633 80.878,31.648 81.969,31.664L81.969,35.062C80.878,35.029 79.788,34.996 78.697,34.963ZM78.697,28.665L78.697,26.598C79.54,26.59 80.383,26.582 81.225,26.573L81.225,28.665C80.383,28.665 79.54,28.665 78.697,28.665ZM86.877,22.169C82.267,22.309 77.656,22.448 73.046,22.587L73.046,38.858C77.904,39.104 82.762,39.351 87.621,39.598C87.621,37.632 87.621,35.665 87.622,33.699C86.275,32.383 85.145,31.305 84.929,31.098C85.085,30.926 85.903,30.027 86.877,28.937L86.877,22.169Z" style="fill:rgb(43,42,42);fill-rule:nonzero;"/>
                                </g>
                                <path d="M155.822,398.478C167.41,399.066 178.999,399.654 190.587,400.243L190.587,353.233C178.999,353.583 167.41,353.933 155.822,354.283L155.822,398.478ZM176.382,388.057C174.264,387.992 172.145,387.927 170.027,387.863L170.027,365.19C172.145,365.169 174.264,365.148 176.382,365.127L176.382,388.057Z" style="fill:rgb(43,42,42);fill-rule:nonzero;"/>
                                <path d="M215.334,385.858L215.334,401.499C220.07,401.739 224.805,401.98 229.54,402.22L229.54,383.262C229.147,382.825 227.073,380.519 224.605,377.82C226.699,375.173 228.459,372.917 228.792,372.489L228.792,352.08C224.057,352.223 219.322,352.366 214.587,352.509L214.587,368.13C213.764,369.281 212.942,370.432 212.12,371.582C211.297,370.439 210.475,369.295 209.652,368.152L209.652,352.658C204.917,352.801 200.182,352.944 195.447,353.087L195.447,372.396C197.54,374.947 199.3,377.121 199.634,377.533C199.241,377.937 197.167,380.067 194.699,382.559L194.699,400.451C199.434,400.692 204.17,400.932 208.905,401.172L208.905,385.698C209.902,385.723 210.898,385.748 211.895,385.772L212.12,385.563L212.344,385.784C213.341,385.808 214.338,385.833 215.334,385.858Z" style="fill:rgb(43,42,42);fill-rule:nonzero;"/>
                            </g>
                            <g transform="matrix(1,0,0,1,85.55143,52.576775)">
                                <g transform="matrix(77.916667,0,0,77.916667,112.831903,402.644953)">
                                    <path d="M0.52,0.006L0.46,-0.657L0.075,-0.608L0.015,0.033L0.205,0.023L0.215,-0.099L0.32,-0.106L0.33,0.016L0.52,0.006ZM0.29,-0.474L0.307,-0.268L0.228,-0.261L0.245,-0.469L0.29,-0.474Z" style="fill:rgb(43,42,42);fill-rule:nonzero;"/>
                                </g>
                            </g>
                            <g transform="matrix(1,0,0,1,-4.269403,52.576775)">
                                <g>
                                    <g transform="matrix(77.916667,0,0,77.916667,112.831903,402.644953)">
                                        <path d="M0.03,0.092L0.22,0.082L0.22,-0.48L0.03,-0.455L0.03,0.092Z" style="fill:rgb(43,42,42);fill-rule:nonzero;"/>
                                    </g>
                                    <g transform="matrix(77.916667,0,0,77.916667,132.31107,402.644953)">
                                        <path d="M0.03,0.079L0.22,0.069L0.22,-0.366L0.305,-0.376L0.305,0.064L0.495,0.055L0.495,-0.546L0.03,-0.487L0.03,0.079Z" style="fill:rgb(43,42,42);fill-rule:nonzero;"/>
                                    </g>
                                </g>
                            </g>
                            <g transform="matrix(1.040751,0,0,1.040751,-8.864234,-32.141181)">
                                <g>
                                    <g transform="matrix(74.764828,0,0,74.764828,112.831903,402.644953)">
                                        <path d="M0.455,-0.234L0.455,-0.379L0.03,-0.283L0.03,0.058L0.265,0.017L0.265,0.087L0.03,0.127L0.03,0.264L0.455,0.2L0.455,-0.162L0.22,-0.116L0.22,-0.186L0.455,-0.234Z" style="fill:rgb(43,42,42);fill-rule:nonzero;"/>
                                    </g>
                                    <g transform="matrix(74.764828,0,0,74.764828,149.092844,402.644953)">
                                        <path d="M0.03,0.191L0.22,0.163L0.22,-0.435L0.03,-0.392L0.03,0.191Z" style="fill:rgb(43,42,42);fill-rule:nonzero;"/>
                                    </g>
                                    <g transform="matrix(74.764828,0,0,74.764828,167.784051,402.644953)">
                                        <path d="M0.162,0.134L0.352,0.106L0.352,-0.364L0.49,-0.393L0.49,-0.552L0.015,-0.445L0.015,-0.295L0.162,-0.325L0.162,0.134Z" style="fill:rgb(43,42,42);fill-rule:nonzero;"/>
                                    </g>
                                    <g transform="matrix(74.764828,0,0,74.764828,205.540289,402.644953)">
                                        <path d="M0.435,0.018L0.435,-0.15L0.22,-0.114L0.22,-0.195L0.42,-0.231L0.42,-0.398L0.22,-0.359L0.22,-0.441L0.435,-0.485L0.435,-0.653L0.03,-0.562L0.03,0.078L0.435,0.018Z" style="fill:rgb(43,42,42);fill-rule:nonzero;"/>
                                    </g>
                                </g>
                            </g>
                        </g>
                    </g>
                </g>
            </g>
            <g transform="matrix(1.095329,0,0,1.095329,-108.686292,88.926698)">
                <clipPath id="_clip9">
                    <rect x="117.754" y="72.113" width="139.48" height="149.883"/>
                </clipPath>
                <g clip-path="url(#_clip9)">
                    <path d="M250.094,115.383L218.898,111.766C217.863,111.621 216.875,111.965 216.102,112.648C215.34,113.328 214.906,114.301 214.906,115.32L214.906,131.172C214.906,133.066 216.387,134.637 218.277,134.746L250.094,136.594L250.094,199.484L188,213.898L188,185.906L228.641,181.184C231.469,180.84 231.84,178.578 231.809,177.629L231.809,162.34C231.875,160.812 231.605,158.621 228.02,158.766L188,161.094L188,80.184L250.094,94.598L250.094,115.383ZM184.434,179.109L158.023,175.969L163.992,175.508L193.133,178.102L184.434,179.109ZM180.84,213.875L124.918,200.562L124.918,179.238L180.84,185.895L180.84,213.875ZM124.918,157.754L124.918,93.516L180.84,80.207L180.84,161.086L124.918,157.754ZM184.211,168.461C184.734,168.461 224.648,166.137 224.648,166.137L224.648,173.715L167.887,168.664L167.887,167.488L184.211,168.461ZM257.254,91.75C257.254,90.09 256.105,88.641 254.484,88.266L185.23,72.191C184.91,72.125 184.266,72.055 183.605,72.191C183.59,72.191 120.5,87.203 120.5,87.203C118.895,87.586 117.754,89.027 117.754,90.688L117.754,161.129C117.754,163.027 119.23,164.59 121.129,164.703L160.727,167.062L160.727,168.621L121.062,171.637C120.285,171.715 117.953,172.234 117.754,175.129C117.75,175.207 117.754,203.391 117.754,203.391C117.754,205.047 118.895,206.488 120.504,206.875L183.59,221.891C184.23,222.094 184.961,221.953 185.23,221.891L254.484,205.812C256.105,205.441 257.254,203.992 257.254,202.328L257.254,133.215C257.254,131.32 255.773,129.75 253.883,129.641L222.066,127.797L222.066,125.359L253.938,122.977C256.633,122.766 257.254,120.434 257.254,119.48L257.254,91.75" style="fill:rgb(43,42,42);fill-rule:nonzero;"/>
                </g>
            </g>
        </g>
    </g>
</svg>
